HIERARCHY
ROOT Hips
{
	OFFSET -0.001795 -0.223333 0.028219
	CHANNELS 6 Xposition Yposition Zposition Zrotation Yrotation Xrotation 
	JOINT LeftUpLeg
	{
		OFFSET 0.069520 -0.091406 -0.006815
		CHANNELS 3 Zrotation Yrotation Xrotation
		JOINT LeftLeg
		{
			OFFSET 0.034277 -0.375199 -0.004496
			CHANNELS 3 Zrotation Yrotation Xrotation
			JOINT LeftFoot
			{
				OFFSET -0.013596 -0.397961 -0.043693
				CHANNELS 3 Zrotation Yrotation Xrotation
				JOINT LeftToe
				{
					OFFSET 0.026358 -0.055791 0.119288
					CHANNELS 3 Zrotation Yrotation Xrotation
					End Site
					{
						OFFSET 0.000000 0.000000 0.000000
					}
				}
			}
		}
	}
	JOINT RightUpLeg
	{
		OFFSET -0.067670 -0.090522 -0.004320
		CHANNELS 3 Zrotation Yrotation Xrotation
		JOINT RightLeg
		{
			OFFSET -0.038290 -0.382569 -0.008850
			CHANNELS 3 Zrotation Yrotation Xrotation
			JOINT RightFoot
			{
				OFFSET 0.015774 -0.398415 -0.042312
				CHANNELS 3 Zrotation Yrotation Xrotation
				JOINT RightToe
				{
					OFFSET -0.025372 -0.048144 0.123348
					CHANNELS 3 Zrotation Yrotation Xrotation
					End Site
					{
						OFFSET 0.000000 0.000000 0.000000
					}
				}
			}
		}
	}
	JOINT Spine
	{
		OFFSET -0.002533 0.108963 -0.026696
		CHANNELS 3 Zrotation Yrotation Xrotation
		JOINT Spine1
		{
			OFFSET 0.005487 0.135180 0.001092
			CHANNELS 3 Zrotation Yrotation Xrotation
			JOINT Spine2
			{
				OFFSET 0.001457 0.052922 0.025425
				CHANNELS 3 Zrotation Yrotation Xrotation
				JOINT Neck
				{
					OFFSET -0.002778 0.213870 -0.042857
					CHANNELS 3 Zrotation Yrotation Xrotation
					JOINT Head
					{
						OFFSET 0.005152 0.064970 0.051349
						CHANNELS 3 Zrotation Yrotation Xrotation
						End Site
						{
							OFFSET 0.000000 0.000000 0.000000
						}
					}
				}
				JOINT LeftShoulder
				{
					OFFSET 0.078845 0.121749 -0.034090
					CHANNELS 3 Zrotation Yrotation Xrotation
					JOINT LeftArm
					{
						OFFSET 0.090977 0.030469 -0.008868
						CHANNELS 3 Zrotation Yrotation Xrotation
						JOINT LeftForeArm
						{
							OFFSET 0.259612 -0.012772 -0.027456
							CHANNELS 3 Zrotation Yrotation Xrotation
							JOINT LeftHand
							{
								OFFSET 0.249234 0.008986 -0.001171
								CHANNELS 3 Zrotation Yrotation Xrotation
								End Site
								{
									OFFSET 0.000000 0.000000 0.000000
								}
							}
						}
					}
				}
				JOINT RightShoulder
				{
					OFFSET -0.081759 0.118833 -0.038615
					CHANNELS 3 Zrotation Yrotation Xrotation
					JOINT RightArm
					{
						OFFSET -0.096012 0.032551 -0.009143
						CHANNELS 3 Zrotation Yrotation Xrotation
						JOINT RightForeArm
						{
							OFFSET -0.253742 -0.013329 -0.021401
							CHANNELS 3 Zrotation Yrotation Xrotation
							JOINT RightHand
							{
								OFFSET -0.255298 0.007772 -0.005559
								CHANNELS 3 Zrotation Yrotation Xrotation
								End Site
								{
									OFFSET 0.000000 0.000000 0.000000
								}
							}
						}
					}
				}
			}
		}
	}
}
MOTION
Frames: 12
Frame Time: 0.050000
0.000000 0.949754 0.000000 -1.559400 1.779367 -1.433998 1.541059 0.463183 6.445127 -0.884312 0.234440 -5.453837 -3.962884 -3.552275 8.263019 0.000000 0.000000 0.000000 0.670791 -0.577650 5.198776 -0.416897 -0.092130 -3.196502 0.979540 -2.595438 11.299259 0.000000 0.000000 0.000000 -1.335707 -0.102676 3.609564 -0.616826 0.217817 2.842139 -0.192661 0.578858 1.518721 1.687627 -0.435335 -8.395167 0.000000 0.000000 0.000000 -26.694169 0.722378 -3.800866 -33.045792 0.550380 -3.638653 3.631119 -15.764775 0.054674 0.000000 0.000000 0.000000 24.116429 -0.861717 -2.465825 39.307079 -0.684730 -3.877667 -3.637378 14.797459 0.098862 0.000000 0.000000 0.000000 
0.000280 0.948664 0.000240 -1.447015 0.980936 -1.418751 1.342060 0.511317 6.761052 -0.931701 0.249207 -5.833227 -3.558835 -3.010573 8.043505 0.000000 0.000000 0.000000 0.207198 -0.514740 4.925739 0.018221 -0.112804 -2.814315 1.251476 -1.972285 10.784638 0.000000 0.000000 0.000000 -1.501924 -0.102294 3.817515 -1.077011 0.437880 4.026365 -0.223897 0.853418 -0.247287 0.772410 0.317245 -9.815539 0.000000 0.000000 0.000000 -25.192182 1.443907 -4.033315 -34.190880 0.211825 -3.586268 4.908720 -14.930587 -0.116894 0.000000 0.000000 0.000000 23.803266 -1.315537 -2.813644 39.445003 -1.903192 -4.090444 -5.774212 16.940650 -0.176284 0.000000 0.000000 0.000000 
0.000623 0.948650 0.000243 -1.368317 0.718946 -1.232522 1.414545 0.434850 5.795591 -1.316765 0.241841 -4.429341 -3.323286 -2.789572 7.679339 0.000000 0.000000 0.000000 0.078835 -0.494600 4.823462 0.010493 -0.120999 -3.038924 1.374238 -1.775220 10.815505 0.000000 0.000000 0.000000 -1.038082 -0.141254 4.527893 -1.173807 0.540282 1.484203 -0.448293 0.670858 1.684659 1.599523 -0.302777 -9.369647 0.000000 0.000000 0.000000 -24.560492 1.021908 -3.538015 -34.016342 0.290447 -3.738892 5.544187 -15.260388 -0.187501 0.000000 0.000000 0.000000 24.107549 -0.182805 -2.176878 37.692508 -1.750386 -3.980576 -6.085784 16.518741 -0.206110 0.000000 0.000000 0.000000 
0.000843 0.949102 0.000221 -1.352665 0.622251 -1.586520 1.231395 0.480384 6.204446 -1.050503 0.224154 -4.451030 -3.306919 -2.715084 7.783185 0.000000 0.000000 0.000000 0.081032 -0.529153 5.165887 -0.082886 -0.110964 -2.978943 1.449375 -1.683901 10.924477 0.000000 0.000000 0.000000 -1.334287 -0.148496 5.147666 -1.529876 0.714564 1.836286 0.210253 0.077543 1.045229 0.785998 0.167184 -9.028716 0.000000 0.000000 0.000000 -23.872834 2.082953 -3.834040 -34.048765 -0.064058 -3.686966 5.580010 -14.578957 -0.165585 0.000000 0.000000 0.000000 23.375384 -0.193449 -2.383566 37.587650 -2.050033 -3.932210 -6.919130 16.864830 -0.344003 0.000000 0.000000 0.000000 
0.001072 0.950073 0.000261 -1.275383 0.178681 -1.564008 1.105289 0.452261 5.693855 -1.088216 0.205461 -3.514004 -3.094957 -2.330770 7.863514 0.000000 0.000000 0.000000 0.097918 -0.502774 4.928378 -0.336813 -0.070958 -2.520731 1.601691 -1.372950 10.757288 0.000000 0.000000 0.000000 -1.212633 -0.170571 5.719228 -1.370964 0.640388 1.622140 0.035337 0.227277 0.988461 1.142849 -0.156832 -8.106687 0.000000 0.000000 0.000000 -24.234038 1.867661 -3.752034 -32.335533 -0.069369 -3.490218 5.267799 -14.720174 -0.127909 0.000000 0.000000 0.000000 23.311509 -0.288914 -2.446994 35.899764 -1.862284 -3.684135 -6.461699 16.293907 -0.274027 0.000000 0.000000 0.000000 
0.001374 0.950619 0.000546 -1.308273 0.102958 -1.357976 0.870195 0.446294 5.454035 -0.665719 0.170416 -3.454390 -3.046100 -2.200302 7.966893 0.000000 0.000000 0.000000 0.066875 -0.482954 4.755673 -0.341981 -0.061357 -2.302087 1.758732 -0.909214 10.381448 0.000000 0.000000 0.000000 -1.350421 -0.164470 5.791310 -1.129520 0.528962 1.037763 0.301382 -0.329802 1.569260 0.838220 -0.006943 -7.897112 0.000000 0.000000 0.000000 -24.145766 2.623633 -3.962112 -31.794068 -0.401152 -3.444848 5.112444 -14.319378 -0.087473 0.000000 0.000000 0.000000 22.617754 -0.377865 -2.594973 35.571326 -1.800869 -3.614378 -7.054802 15.815717 -0.346212 0.000000 0.000000 0.000000 
0.001799 0.951040 0.001087 -1.292174 -0.145760 -1.118269 0.767932 0.424591 5.106534 -0.620790 0.160053 -3.204995 -2.927642 -1.974738 8.041969 0.000000 0.000000 0.000000 0.216105 -0.458023 4.436429 -0.853319 0.005005 -1.825151 1.970905 -0.227754 9.739445 0.000000 0.000000 0.000000 -1.250919 -0.177066 6.089588 -1.084100 0.508617 0.916046 0.381582 -0.460661 1.648441 1.005850 -0.126458 -8.069385 0.000000 0.000000 0.000000 -24.197919 2.796347 -3.983072 -31.193926 -0.250154 -3.440635 4.690988 -14.188766 -0.029804 0.000000 0.000000 0.000000 22.517653 -0.536233 -2.752827 35.149707 -2.157889 -3.640906 -7.163559 15.356438 -0.351061 0.000000 0.000000 0.000000 
0.002519 0.951367 0.002008 -1.333218 -0.124778 -0.991975 0.474864 0.417925 4.852400 -0.110248 0.108281 -2.906200 -2.882508 -1.914024 7.993104 0.000000 0.000000 0.000000 0.377471 -0.467030 4.427724 -1.298521 0.059191 -1.553119 2.119518 0.367085 9.119285 0.000000 0.000000 0.000000 -1.284834 -0.187461 6.517979 -0.790188 0.369984 0.583856 0.338646 -0.678236 2.038815 1.301999 -0.319915 -8.396858 0.000000 0.000000 0.000000 -24.459311 3.130451 -4.144527 -30.680667 0.254291 -3.532505 4.810064 -14.305935 -0.039081 0.000000 0.000000 0.000000 22.694342 -0.799066 -2.969750 34.890048 -2.398297 -3.683226 -7.864801 13.756886 -0.370307 0.000000 0.000000 0.000000 
0.003548 0.951805 0.003380 -1.160938 -0.357332 -0.637479 0.252529 0.429311 4.832068 -0.220623 0.132468 -3.370263 -2.861335 -1.750290 8.319381 0.000000 0.000000 0.000000 0.117714 -0.431255 4.240268 -1.276181 0.054047 -1.596938 2.138404 0.495700 8.865689 0.000000 0.000000 0.000000 -1.198444 -0.190128 6.507599 -1.036514 0.485679 0.870494 0.585798 -0.791544 1.813073 1.540384 -0.484314 -8.578239 0.000000 0.000000 0.000000 -24.477421 3.531060 -4.303750 -30.877114 0.804578 -3.684092 4.904917 -14.061545 -0.043088 0.000000 0.000000 0.000000 22.508588 -1.422998 -3.396659 35.121845 -3.342352 -3.909030 -8.014489 12.484893 -0.339909 0.000000 0.000000 0.000000 
0.004936 0.952447 0.005319 -0.963271 -0.021385 -0.327906 0.036760 0.429351 4.728506 -0.319132 0.148622 -3.639629 -3.110714 -2.007948 8.665559 0.000000 0.000000 0.000000 0.029934 -0.437285 4.335374 -1.643686 0.060851 -2.111810 2.099698 0.301872 9.193242 0.000000 0.000000 0.000000 -1.072496 -0.188859 6.232983 -0.815952 0.370407 1.159522 0.216387 -0.989729 2.010915 1.908162 -0.691857 -9.073878 0.000000 0.000000 0.000000 -24.538315 4.755715 -5.049557 -31.370148 1.315257 -3.862567 5.226776 -13.920850 -0.078484 0.000000 0.000000 0.000000 22.534519 -2.131993 -3.784840 35.426094 -4.503330 -4.262894 -8.056224 10.930130 -0.276878 0.000000 0.000000 0.000000 
0.006445 0.952807 0.007755 -0.718689 0.036836 -0.040460 -0.303601 0.457544 4.833595 -0.352951 0.166153 -4.121889 -3.234004 -2.078250 8.979875 0.000000 0.000000 0.000000 -0.289779 -0.407158 4.227251 -1.677449 0.045663 -2.445610 2.072058 -0.011748 9.767555 0.000000 0.000000 0.000000 -0.944182 -0.191558 6.105990 -1.064874 0.490497 1.280725 0.138603 -0.775624 2.069796 2.256408 -0.904763 -9.148851 0.000000 0.000000 0.000000 -24.403769 5.278886 -5.413545 -32.174354 2.588857 -4.236780 5.486023 -13.352696 -0.107652 0.000000 0.000000 0.000000 22.271223 -3.645487 -4.528496 35.816867 -5.998756 -4.732579 -7.088737 9.710774 -0.159199 0.000000 0.000000 0.000000 
0.007895 0.953528 0.010430 -0.696918 0.053993 0.292191 -0.643862 0.452855 4.588445 0.037815 0.134827 -4.044740 -3.250571 -2.031801 9.142679 0.000000 0.000000 0.000000 -0.206409 -0.427148 4.378602 -1.730715 0.025281 -2.895690 1.727550 -0.715049 9.769667 0.000000 0.000000 0.000000 -0.650565 -0.209741 6.134348 -1.168189 0.537906 1.451247 0.201229 -1.101324 2.145183 2.686876 -1.183075 -9.536593 0.000000 0.000000 0.000000 -24.525974 6.753878 -6.206869 -32.630343 4.451446 -4.761546 5.439909 -12.675300 -0.087068 0.000000 0.000000 0.000000 21.793596 -4.584875 -5.069321 35.628348 -7.984252 -5.200831 -5.450811 9.076202 -0.047723 0.000000 0.000000 0.000000 
